<?xml version="1.0" encoding="UTF-8" standalone="no"?>
<!DOCTYPE svg PUBLIC "-//W3C//DTD SVG 1.1//EN" "http://www.w3.org/Graphics/SVG/1.1/DTD/svg11.dtd">
<svg xmlns="http://www.w3.org/2000/svg" version="1.1" viewBox="0.00 0.00 618.00 150.00">
<g stroke-width="2.00" fill="none" stroke-linecap="butt">
<path stroke="#50544f" stroke-opacity="0.969" vector-effect="non-scaling-stroke" d="
  M 502.03 21.87
  Q 500.20 20.33 499.88 21.22
  Q 499.49 22.30 499.45 23.43
  Q 498.96 36.45 498.42 49.53"
/>
<path stroke="#50544f" stroke-opacity="0.969" vector-effect="non-scaling-stroke" d="
  M 502.77 22.95
  Q 503.18 24.57 504.28 24.96"
/>
<path stroke="#50544f" stroke-opacity="0.969" vector-effect="non-scaling-stroke" d="
  M 507.50 28.34
  Q 507.16 34.70 506.98 41.24
  Q 506.98 41.33 506.57 46.24
  Q 506.28 49.62 507.11 52.72"
/>
<path stroke="#50544f" stroke-opacity="0.969" vector-effect="non-scaling-stroke" d="
  M 506.39 54.86
  L 506.51 56.99"
/>
<path stroke="#7f7f7f" vector-effect="non-scaling-stroke" d="
  M 506.18 57.46
  L 504.52 85.19"
/>
<path stroke="#50544f" stroke-opacity="0.969" vector-effect="non-scaling-stroke" d="
  M 503.94 99.64
  C 503.46 101.11 503.48 105.28 502.99 105.98
  Q 502.60 106.54 502.01 106.55"
/>
<path stroke="#7f7f7f" vector-effect="non-scaling-stroke" d="
  M 502.01 106.55
  Q 498.75 105.88 496.50 106.00
  Q 495.95 106.03 495.99 106.70"
/>
<path stroke="#7f7f7f" vector-effect="non-scaling-stroke" d="
  M 46.40 66.70
  L 76.10 64.32"
/>
<path stroke="#7f7f7f" vector-effect="non-scaling-stroke" d="
  M 77.69 63.83
  C 84.27 64.23 92.15 63.08 97.12 62.87
  Q 110.96 62.28 124.77 61.29
  C 143.23 59.96 161.82 59.14 180.32 58.34"
/>
<path stroke="#7f7f7f" vector-effect="non-scaling-stroke" d="
  M 190.77 57.27
  Q 190.83 58.32 192.76 58.24
  C 200.79 57.93 208.88 57.08 216.77 56.99
  C 228.37 56.85 240.76 56.14 251.50 55.99
  Q 270.63 55.73 289.76 55.27
  C 335.13 54.17 380.21 55.33 425.94 55.95
  C 438.96 56.13 454.45 57.09 468.73 57.01"
/>
<path stroke="#50544f" stroke-opacity="0.969" vector-effect="non-scaling-stroke" d="
  M 468.73 57.01
  Q 478.87 58.35 489.08 57.66"
/>
<path stroke="#d3d7d3" stroke-opacity="0.969" vector-effect="non-scaling-stroke" d="
  M 502.29 107.26
  Q 502.27 106.90 502.01 106.55"
/>
<path stroke="#d3d7d3" stroke-opacity="0.969" vector-effect="non-scaling-stroke" d="
  M 469.00 56.82
  Q 469.01 56.17 468.73 57.01"
/>
<path stroke="#7f7f7f" vector-effect="non-scaling-stroke" d="
  M 545.85 61.67
  C 546.44 68.17 545.07 74.79 544.97 81.35
  Q 544.97 81.87 545.48 81.91
  L 552.50 82.45
  Q 552.98 82.49 553.02 82.01
  L 554.35 62.84
  Q 554.36 62.62 554.15 62.55
  Q 553.98 62.49 553.80 62.43
  A 0.06 0.06 0.0 0 1 553.81 62.31
  Q 554.23 62.22 554.25 62.06"
/>
<path stroke="#7f7f7f" vector-effect="non-scaling-stroke" d="
  M 556.11 62.05
  L 554.67 82.08
  Q 554.63 82.75 555.30 82.78
  L 562.16 83.07
  Q 562.70 83.10 562.74 82.56
  L 564.14 63.05"
/>
<path stroke="#7f7f7f" vector-effect="non-scaling-stroke" d="
  M 565.43 63.30
  L 564.11 82.51
  Q 564.06 83.17 564.72 83.24
  L 571.72 84.02
  A 0.53 0.52 -84.8 0 0 572.30 83.53
  L 573.70 64.50
  A 0.83 0.82 25.6 0 0 573.47 63.86
  Q 573.30 63.69 573.21 63.46"
/>
<path stroke="#d3d7d3" stroke-opacity="0.969" vector-effect="non-scaling-stroke" d="
  M 573.21 63.46
  L 573.48 63.07"
/>
<path stroke="#7f7f7f" vector-effect="non-scaling-stroke" d="
  M 577.09 63.64
  Q 576.68 63.88 575.89 63.82
  Q 575.23 63.77 575.18 64.44
  L 573.83 83.36
  Q 573.80 83.86 574.30 83.92
  L 581.30 84.65
  Q 581.80 84.71 581.84 84.20
  L 583.37 63.95"
/>
<path stroke="#7f7f7f" vector-effect="non-scaling-stroke" d="
  M 585.07 64.05
  L 583.51 84.43
  A 0.46 0.46 0.0 0 0 583.95 84.92
  L 591.00 85.23
  A 0.59 0.59 0.0 0 0 591.62 84.68
  L 593.02 66.65
  Q 593.14 65.10 591.61 64.92
  L 586.09 64.26"
/>
<path stroke="#7f7f7f" vector-effect="non-scaling-stroke" d="
  M 594.49 65.22
  L 592.95 84.76
  Q 592.88 85.62 593.75 85.69
  L 598.04 86.05
  Q 598.78 86.11 598.20 86.58
  Q 596.09 88.28 593.39 88.49
  Q 592.85 88.53 592.73 89.06
  Q 592.59 89.72 593.41 90.53"
/>
<path stroke="#d3d7d3" stroke-opacity="0.969" vector-effect="non-scaling-stroke" d="
  M 590.74 90.76
  Q 590.78 90.00 590.72 90.47"
/>
<path stroke="#7f7f7f" vector-effect="non-scaling-stroke" d="
  M 590.72 90.47
  Q 591.55 89.27 591.21 88.46
  A 0.58 0.57 80.1 0 0 590.71 88.10
  L 583.80 87.72
  Q 583.23 87.69 583.08 88.24
  L 582.61 89.95"
/>
<path stroke="#7f7f7f" vector-effect="non-scaling-stroke" d="
  M 581.44 89.96
  Q 581.89 88.90 581.71 87.92
  Q 581.60 87.32 580.98 87.28
  L 574.09 86.93
  Q 573.61 86.91 573.53 87.39
  L 573.28 88.97"
/>
<path stroke="#7f7f7f" vector-effect="non-scaling-stroke" d="
  M 571.98 88.95
  L 571.94 87.22
  Q 571.92 86.65 571.36 86.61
  L 564.46 86.08
  Q 564.02 86.04 564.01 86.48
  L 564.00 87.98"
/>
<path stroke="#d3d7d3" stroke-opacity="0.969" vector-effect="non-scaling-stroke" d="
  M 564.00 87.98
  Q 564.08 88.14 563.71 88.33"
/>
<path stroke="#7f7f7f" vector-effect="non-scaling-stroke" d="
  M 562.21 87.97
  L 562.48 86.68
  Q 562.60 86.10 562.01 86.05
  L 554.79 85.44
  A 0.55 0.54 9.2 0 0 554.21 85.85
  Q 553.95 86.87 554.30 87.98"
/>
<path stroke="#d3d7d3" stroke-opacity="0.969" vector-effect="non-scaling-stroke" d="
  M 552.77 87.96
  Q 552.44 87.57 552.51 87.37"
/>
<path stroke="#7f7f7f" vector-effect="non-scaling-stroke" d="
  M 552.51 87.37
  Q 553.41 86.46 552.86 85.52
  Q 552.64 85.14 552.20 85.12
  L 545.38 84.87
  Q 544.83 84.85 544.70 85.39
  L 544.31 87.01"
/>
<path stroke="#7f7f7f" vector-effect="non-scaling-stroke" d="
  M 542.97 86.97
  Q 543.15 85.95 542.98 85.14
  Q 542.87 84.61 542.33 84.57
  L 535.69 84.03
  Q 535.16 83.98 535.03 84.50
  Q 534.88 85.09 535.05 85.86"
/>
<path stroke="#d3d7d3" stroke-opacity="0.969" vector-effect="non-scaling-stroke" d="
  M 535.05 85.86
  Q 534.97 85.71 534.74 86.19"
/>
<path stroke="#7f7f7f" vector-effect="non-scaling-stroke" d="
  M 533.44 85.99
  L 533.73 84.70
  Q 533.86 84.14 533.28 84.08
  Q 530.12 83.76 526.76 83.49
  Q 525.54 83.39 525.34 84.05
  Q 525.14 84.70 525.43 85.99"
/>
<path stroke="#d3d7d3" stroke-opacity="0.969" vector-effect="non-scaling-stroke" d="
  M 523.75 85.97
  L 523.70 85.30"
/>
<path stroke="#7f7f7f" vector-effect="non-scaling-stroke" d="
  M 523.70 85.30
  Q 524.13 84.64 524.00 83.89
  Q 523.92 83.41 523.45 83.34
  Q 520.12 82.85 516.78 83.03
  Q 516.21 83.06 515.96 83.36
  Q 515.59 83.80 515.81 84.40
  Q 515.98 84.89 516.50 84.92
  L 522.28 85.30"
/>
<path stroke="#d3d7d3" stroke-opacity="0.969" vector-effect="non-scaling-stroke" d="
  M 522.28 85.30
  L 520.98 85.93"
/>
<path stroke="#d3d7d3" stroke-opacity="0.969" vector-effect="non-scaling-stroke" d="
  M 514.02 85.26
  Q 513.95 84.39 513.93 85.00"
/>
<path stroke="#7f7f7f" vector-effect="non-scaling-stroke" d="
  M 513.93 85.00
  Q 514.33 84.03 514.26 83.28
  Q 514.20 82.78 513.70 82.75
  L 507.59 82.40
  A 0.64 0.63 5.8 0 1 506.99 81.68
  L 507.19 80.21
  Q 507.27 79.64 507.84 79.67
  L 513.85 80.04
  A 0.68 0.68 0.0 0 0 514.57 79.40
  L 515.51 60.68
  Q 515.54 60.09 514.94 60.08
  L 507.89 59.97
  A 0.64 0.64 0.0 0 0 507.24 60.60
  Q 507.10 71.51 505.92 82.23
  Q 505.75 83.79 506.48 84.26"
/>
<path stroke="#d3d7d3" stroke-opacity="0.969" vector-effect="non-scaling-stroke" d="
  M 506.48 84.26
  Q 505.90 84.69 505.99 84.98"
/>
<path stroke="#7f7f7f" vector-effect="non-scaling-stroke" d="
  M 502.60 108.98
  L 494.46 109.27"
/>
<path stroke="#50544f" stroke-opacity="0.969" vector-effect="non-scaling-stroke" d="
  M 590.72 90.47
  Q 588.30 89.65 586.44 90.29"
/>
<path stroke="#50544f" stroke-opacity="0.969" vector-effect="non-scaling-stroke" d="
  M 570.16 63.08
  Q 571.32 64.07 573.21 63.46"
/>
<path stroke="#50544f" stroke-opacity="0.969" vector-effect="non-scaling-stroke" d="
  M 568.61 88.81
  L 564.00 87.98"
/>
<path stroke="#50544f" stroke-opacity="0.969" vector-effect="non-scaling-stroke" d="
  M 541.52 86.89
  Q 541.51 86.48 541.25 86.46
  Q 538.11 86.20 535.05 85.86"
/>
<path stroke="#50544f" stroke-opacity="0.969" vector-effect="non-scaling-stroke" d="
  M 556.80 62.32
  Q 559.91 63.30 562.83 62.86"
/>
<path stroke="#50544f" stroke-opacity="0.969" vector-effect="non-scaling-stroke" d="
  M 581.20 89.86
  Q 578.37 88.64 575.65 89.23"
/>
<path stroke="#50544f" stroke-opacity="0.969" vector-effect="non-scaling-stroke" d="
  M 513.93 85.00
  L 506.48 84.26"
/>
<path stroke="#50544f" stroke-opacity="0.969" vector-effect="non-scaling-stroke" d="
  M 523.70 85.30
  L 522.28 85.30"
/>
<path stroke="#50544f" stroke-opacity="0.969" vector-effect="non-scaling-stroke" d="
  M 552.51 87.37
  Q 550.21 86.72 548.36 87.24"
/>
<path stroke="#50544f" stroke-opacity="0.969" vector-effect="non-scaling-stroke" d="
  M 503.68 109.22
  Q 503.25 109.22 503.23 109.50
  Q 502.78 114.46 503.08 119.54"
/>
<path stroke="#50544f" stroke-opacity="0.969" vector-effect="non-scaling-stroke" d="
  M 596.85 66.17
  Q 595.65 66.06 594.93 65.38"
/>
<path stroke="#7f7f7f" vector-effect="non-scaling-stroke" d="
  M 325.71 57.55
  C 290.98 56.82 256.53 57.70 221.31 58.82
  C 162.22 60.70 104.51 63.29 48.50 68.11
  A 1.63 1.55 22.9 0 0 47.68 68.42
  L 41.57 73.08
  A 0.34 0.34 0.0 0 0 41.83 73.68
  Q 45.04 73.12 48.49 72.88
  Q 139.61 66.42 230.94 64.37
  C 286.49 63.12 336.28 62.48 397.50 64.11
  C 399.86 64.17 402.65 63.71 405.17 63.85
  C 421.27 64.74 438.11 64.89 453.42 65.53
  Q 474.41 66.42 495.40 67.19
  Q 495.98 67.21 496.01 66.63
  L 496.03 66.07"
/>
<path stroke="#7f7f7f" vector-effect="non-scaling-stroke" d="
  M 494.99 61.04
  Q 498.03 60.72 493.73 60.08
  Q 493.03 59.97 492.24 59.99
  C 478.53 60.23 464.34 59.31 451.03 59.17"
/>
<path stroke="#50544f" stroke-opacity="0.969" vector-effect="non-scaling-stroke" d="
  M 451.03 59.17
  C 440.70 57.87 430.06 58.27 419.66 58.18
  C 411.49 58.12 400.76 57.33 391.25 57.50"
/>
<path stroke="#7f7f7f" vector-effect="non-scaling-stroke" d="
  M 391.25 57.50
  L 343.03 57.60"
/>
<path stroke="#d3d7d3" stroke-opacity="0.969" vector-effect="non-scaling-stroke" d="
  M 391.25 57.50
  Q 391.15 57.79 391.00 57.90"
/>
<path stroke="#dbdcdd" stroke-opacity="0.855" vector-effect="non-scaling-stroke" d="
  M 370.57 58.22
  L 359.21 58.47"
/>
<path stroke="#d3d7d3" stroke-opacity="0.969" vector-effect="non-scaling-stroke" d="
  M 359.21 58.47
  Q 352.08 59.01 344.95 59.46
  C 343.16 59.57 341.76 58.66 339.81 58.73
  Q 339.04 58.76 339.11 59.53
  L 339.24 61.16
  Q 339.29 61.77 339.90 61.71
  C 348.75 60.87 355.87 62.36 366.78 61.80"
/>
<path stroke="#dbdcdd" stroke-opacity="0.855" vector-effect="non-scaling-stroke" d="
  M 391.69 62.33
  C 398.23 61.92 403.11 61.19 407.55 62.92"
/>
<path stroke="#d3d7d3" stroke-opacity="0.969" vector-effect="non-scaling-stroke" d="
  M 451.03 59.17
  Q 449.98 59.17 449.48 59.46"
/>
<path stroke="#d3d7d3" stroke-opacity="0.969" vector-effect="non-scaling-stroke" d="
  M 306.7800 58.3012
  A 3.20 0.25 0.2 0 0 303.5809 58.0400
  A 3.20 0.25 0.2 0 0 300.3800 58.2788
  A 3.20 0.25 0.2 0 0 303.5791 58.5400
  A 3.20 0.25 0.2 0 0 306.7800 58.3012"
/>
<path stroke="#7f7f7f" vector-effect="non-scaling-stroke" d="
  M 525.2991 61.1326
  A 0.30 0.30 0.0 0 0 525.0191 60.8139
  L 517.4948 60.3273
  A 0.30 0.30 0.0 0 0 517.1761 60.6073
  L 515.9409 79.7074
  A 0.30 0.30 0.0 0 0 516.2209 80.0261
  L 523.7452 80.5127
  A 0.30 0.30 0.0 0 0 524.0639 80.2327
  L 525.2991 61.1326"
/>
<path stroke="#7f7f7f" vector-effect="non-scaling-stroke" d="
  M 526.25 80.80
  L 533.14 81.22
  A 0.66 0.66 0.0 0 0 533.84 80.60
  L 534.93 62.74
  A 1.54 1.21 -86.5 0 0 533.82 61.13
  L 528.03 60.77
  A 1.54 1.21 -86.5 0 0 526.73 62.23
  L 525.63 80.10
  A 0.66 0.66 0.0 0 0 526.25 80.80"
/>
<path stroke="#7f7f7f" vector-effect="non-scaling-stroke" d="
  M 544.6341 62.3057
  A 0.41 0.41 0.0 0 0 544.2506 61.8708
  L 536.9052 61.4087
  A 0.41 0.41 0.0 0 0 536.4702 61.7921
  L 535.2659 80.9343
  A 0.41 0.41 0.0 0 0 535.6494 81.3692
  L 542.9948 81.8313
  A 0.41 0.41 0.0 0 0 543.4298 81.4479
  L 544.6341 62.3057"
/>
</g>
<path fill="#a5ada4" fill-opacity="0.933" d="
  M 502.03 21.87
  Q 500.20 20.33 499.88 21.22
  Q 499.49 22.30 499.45 23.43
  Q 498.96 36.45 498.42 49.53
  Q 497.95 36.74 498.79 24.00
  Q 498.87 22.80 498.29 21.01
  Q 498.12 20.51 498.64 20.39
  Q 501.58 19.69 502.03 21.87
  Z"
/>
<path fill="#000000" d="
  M 502.03 21.87
  Q 501.76 22.43 502.77 22.95
  Q 503.18 24.57 504.28 24.96
  L 507.50 28.34
  Q 507.16 34.70 506.98 41.24
  Q 506.98 41.33 506.57 46.24
  Q 506.28 49.62 507.11 52.72
  Q 507.91 54.37 506.39 54.86
  L 506.51 56.99
  Q 506.42 57.34 506.18 57.46
  L 504.52 85.19
  L 503.94 99.64
  C 503.46 101.11 503.48 105.28 502.99 105.98
  Q 502.60 106.54 502.01 106.55
  Q 498.75 105.88 496.50 106.00
  Q 495.95 106.03 495.99 106.70
  L 494.84 106.32
  Q 494.40 106.17 494.44 105.71
  L 494.79 101.25
  A 0.23 0.23 0.0 0 1 495.25 101.26
  L 495.25 102.26
  Q 495.25 103.01 495.68 102.40
  Q 495.84 102.18 495.97 101.97
  Q 496.09 101.77 496.09 101.50
  Q 496.26 93.05 496.45 85.02
  A 1.07 1.07 0.0 0 0 495.26 83.93
  Q 492.04 84.29 489.25 83.57
  C 484.15 82.23 477.97 83.19 472.61 82.70
  C 464.36 81.94 456.98 82.23 449.10 81.67
  C 437.34 80.84 426.41 80.91 415.00 81.01
  C 410.68 81.04 406.40 80.02 402.30 80.06
  C 394.05 80.16 385.79 78.92 377.87 79.02
  C 366.34 79.16 353.50 78.23 343.37 78.18
  Q 279.93 77.86 216.50 78.02
  C 202.51 78.05 186.37 79.36 171.15 78.95
  C 168.48 78.88 166.16 79.92 163.59 79.94
  C 155.71 80.00 147.68 81.02 140.13 80.96
  Q 131.06 80.90 122.00 81.18
  Q 90.44 82.18 58.94 84.33
  C 48.12 85.06 33.39 86.85 20.26 87.71
  Q 18.44 87.83 19.90 86.73
  L 46.40 66.70
  L 76.10 64.32
  Q 76.28 63.86 77.69 63.83
  C 84.27 64.23 92.15 63.08 97.12 62.87
  Q 110.96 62.28 124.77 61.29
  C 143.23 59.96 161.82 59.14 180.32 58.34
  L 190.77 57.27
  Q 190.83 58.32 192.76 58.24
  C 200.79 57.93 208.88 57.08 216.77 56.99
  C 228.37 56.85 240.76 56.14 251.50 55.99
  Q 270.63 55.73 289.76 55.27
  C 335.13 54.17 380.21 55.33 425.94 55.95
  C 438.96 56.13 454.45 57.09 468.73 57.01
  Q 478.87 58.35 489.08 57.66
  Q 493.28 58.45 497.74 57.84
  Q 498.29 57.76 498.30 57.20
  L 498.42 49.53
  Q 498.96 36.45 499.45 23.43
  Q 499.49 22.30 499.88 21.22
  Q 500.20 20.33 502.03 21.87
  Z
  M 325.71 57.55
  C 290.98 56.82 256.53 57.70 221.31 58.82
  C 162.22 60.70 104.51 63.29 48.50 68.11
  A 1.63 1.55 22.9 0 0 47.68 68.42
  L 41.57 73.08
  A 0.34 0.34 0.0 0 0 41.83 73.68
  Q 45.04 73.12 48.49 72.88
  Q 139.61 66.42 230.94 64.37
  C 286.49 63.12 336.28 62.48 397.50 64.11
  C 399.86 64.17 402.65 63.71 405.17 63.85
  C 421.27 64.74 438.11 64.89 453.42 65.53
  Q 474.41 66.42 495.40 67.19
  Q 495.98 67.21 496.01 66.63
  L 496.03 66.07
  Q 497.28 61.06 494.99 61.04
  Q 498.03 60.72 493.73 60.08
  Q 493.03 59.97 492.24 59.99
  C 478.53 60.23 464.34 59.31 451.03 59.17
  C 440.70 57.87 430.06 58.27 419.66 58.18
  C 411.49 58.12 400.76 57.33 391.25 57.50
  L 343.03 57.60
  Q 334.24 56.13 325.71 57.55
  Z"
/>
<path fill="#a5ada4" fill-opacity="0.933" d="
  M 502.77 22.95
  Q 504.37 23.31 504.28 24.96
  Q 503.18 24.57 502.77 22.95
  Z"
/>
<path fill="#a5ada4" fill-opacity="0.933" d="
  M 507.50 28.34
  Q 508.43 40.19 507.11 52.72
  Q 506.28 49.62 506.57 46.24
  Q 506.98 41.33 506.98 41.24
  Q 507.16 34.70 507.50 28.34
  Z"
/>
<path fill="#fefefe" d="
  M 469.00 56.82
  Q 469.01 56.17 468.73 57.01
  C 454.45 57.09 438.96 56.13 425.94 55.95
  C 380.21 55.33 335.13 54.17 289.76 55.27
  Q 270.63 55.73 251.50 55.99
  C 240.76 56.14 228.37 56.85 216.77 56.99
  C 208.88 57.08 200.79 57.93 192.76 58.24
  Q 190.83 58.32 190.77 57.27
  C 199.04 57.34 208.25 56.13 215.35 56.03
  C 221.90 55.93 228.14 56.09 234.86 55.58
  Q 248.71 54.54 262.61 55.08
  C 265.17 55.18 267.63 54.01 270.15 54.01
  Q 337.38 53.99 404.61 54.00
  C 407.25 54.00 409.63 54.96 412.16 54.97
  C 423.50 55.03 433.59 54.86 445.96 55.70
  C 451.23 56.05 465.10 54.75 469.00 56.82
  Z"
/>
<path fill="#a5ada4" fill-opacity="0.933" d="
  M 506.39 54.86
  Q 507.29 55.55 507.30 56.25
  Q 507.30 56.79 506.51 56.99
  L 506.39 54.86
  Z"
/>
<path fill="#a5ada4" fill-opacity="0.933" d="
  M 469.00 56.82
  L 489.08 57.66
  Q 478.87 58.35 468.73 57.01
  Q 469.01 56.17 469.00 56.82
  Z"
/>
<path fill="#fefefe" d="
  M 325.71 57.55
  L 343.03 57.60
  L 391.25 57.50
  Q 391.15 57.79 391.00 57.90
  L 370.57 58.22
  L 359.21 58.47
  Q 352.08 59.01 344.95 59.46
  C 343.16 59.57 341.76 58.66 339.81 58.73
  Q 339.04 58.76 339.11 59.53
  L 339.24 61.16
  Q 339.29 61.77 339.90 61.71
  C 348.75 60.87 355.87 62.36 366.78 61.80
  L 391.69 62.33
  C 398.23 61.92 403.11 61.19 407.55 62.92
  Q 412.61 63.79 415.75 63.77
  C 441.26 63.57 459.27 64.38 477.40 65.01
  C 483.00 65.20 489.71 66.29 496.03 66.07
  L 496.01 66.63
  Q 495.98 67.21 495.40 67.19
  Q 474.41 66.42 453.42 65.53
  C 438.11 64.89 421.27 64.74 405.17 63.85
  C 402.65 63.71 399.86 64.17 397.50 64.11
  C 336.28 62.48 286.49 63.12 230.94 64.37
  Q 139.61 66.42 48.49 72.88
  Q 45.04 73.12 41.83 73.68
  A 0.34 0.34 0.0 0 1 41.57 73.08
  L 47.68 68.42
  A 1.63 1.55 22.9 0 1 48.50 68.11
  C 104.51 63.29 162.22 60.70 221.31 58.82
  C 256.53 57.70 290.98 56.82 325.71 57.55
  Z
  M 306.7800 58.3012
  A 3.20 0.25 0.2 0 0 303.5809 58.0400
  A 3.20 0.25 0.2 0 0 300.3800 58.2788
  A 3.20 0.25 0.2 0 0 303.5791 58.5400
  A 3.20 0.25 0.2 0 0 306.7800 58.3012
  Z"
/>
<path fill="#a5ada4" fill-opacity="0.933" d="
  M 391.25 57.50
  C 400.76 57.33 411.49 58.12 419.66 58.18
  C 430.06 58.27 440.70 57.87 451.03 59.17
  Q 449.98 59.17 449.48 59.46
  L 391.00 57.90
  Q 391.15 57.79 391.25 57.50
  Z"
/>
<path fill="#fefefe" d="
  M 506.18 57.46
  C 508.02 59.94 516.17 59.01 519.19 59.00
  C 520.92 59.00 522.26 59.98 523.96 59.99
  Q 528.62 60.01 533.29 60.00
  C 534.47 60.00 535.35 60.88 536.45 60.82
  Q 541.22 60.56 545.85 61.67
  C 546.44 68.17 545.07 74.79 544.97 81.35
  Q 544.97 81.87 545.48 81.91
  L 552.50 82.45
  Q 552.98 82.49 553.02 82.01
  L 554.35 62.84
  Q 554.36 62.62 554.15 62.55
  Q 553.98 62.49 553.80 62.43
  A 0.06 0.06 0.0 0 1 553.81 62.31
  Q 554.23 62.22 554.25 62.06
  L 556.11 62.05
  L 554.67 82.08
  Q 554.63 82.75 555.30 82.78
  L 562.16 83.07
  Q 562.70 83.10 562.74 82.56
  L 564.14 63.05
  Q 564.93 62.79 565.43 63.30
  L 564.11 82.51
  Q 564.06 83.17 564.72 83.24
  L 571.72 84.02
  A 0.53 0.52 -84.8 0 0 572.30 83.53
  L 573.70 64.50
  A 0.83 0.82 25.6 0 0 573.47 63.86
  Q 573.30 63.69 573.21 63.46
  L 573.48 63.07
  L 577.09 63.64
  Q 576.68 63.88 575.89 63.82
  Q 575.23 63.77 575.18 64.44
  L 573.83 83.36
  Q 573.80 83.86 574.30 83.92
  L 581.30 84.65
  Q 581.80 84.71 581.84 84.20
  L 583.37 63.95
  L 585.07 64.05
  L 583.51 84.43
  A 0.46 0.46 0.0 0 0 583.95 84.92
  L 591.00 85.23
  A 0.59 0.59 0.0 0 0 591.62 84.68
  L 593.02 66.65
  Q 593.14 65.10 591.61 64.92
  L 586.09 64.26
  Q 591.33 63.17 594.49 65.22
  L 592.95 84.76
  Q 592.88 85.62 593.75 85.69
  L 598.04 86.05
  Q 598.78 86.11 598.20 86.58
  Q 596.09 88.28 593.39 88.49
  Q 592.85 88.53 592.73 89.06
  Q 592.59 89.72 593.41 90.53
  Q 591.70 91.29 590.74 90.76
  Q 590.78 90.00 590.72 90.47
  Q 591.55 89.27 591.21 88.46
  A 0.58 0.57 80.1 0 0 590.71 88.10
  L 583.80 87.72
  Q 583.23 87.69 583.08 88.24
  L 582.61 89.95
  L 581.44 89.96
  Q 581.89 88.90 581.71 87.92
  Q 581.60 87.32 580.98 87.28
  L 574.09 86.93
  Q 573.61 86.91 573.53 87.39
  L 573.28 88.97
  L 571.98 88.95
  L 571.94 87.22
  Q 571.92 86.65 571.36 86.61
  L 564.46 86.08
  Q 564.02 86.04 564.01 86.48
  L 564.00 87.98
  Q 564.08 88.14 563.71 88.33
  L 562.21 87.97
  L 562.48 86.68
  Q 562.60 86.10 562.01 86.05
  L 554.79 85.44
  A 0.55 0.54 9.2 0 0 554.21 85.85
  Q 553.95 86.87 554.30 87.98
  L 552.77 87.96
  Q 552.44 87.57 552.51 87.37
  Q 553.41 86.46 552.86 85.52
  Q 552.64 85.14 552.20 85.12
  L 545.38 84.87
  Q 544.83 84.85 544.70 85.39
  L 544.31 87.01
  L 542.97 86.97
  Q 543.15 85.95 542.98 85.14
  Q 542.87 84.61 542.33 84.57
  L 535.69 84.03
  Q 535.16 83.98 535.03 84.50
  Q 534.88 85.09 535.05 85.86
  Q 534.97 85.71 534.74 86.19
  Q 534.37 85.87 533.44 85.99
  L 533.73 84.70
  Q 533.86 84.14 533.28 84.08
  Q 530.12 83.76 526.76 83.49
  Q 525.54 83.39 525.34 84.05
  Q 525.14 84.70 525.43 85.99
  L 523.75 85.97
  L 523.70 85.30
  Q 524.13 84.64 524.00 83.89
  Q 523.92 83.41 523.45 83.34
  Q 520.12 82.85 516.78 83.03
  Q 516.21 83.06 515.96 83.36
  Q 515.59 83.80 515.81 84.40
  Q 515.98 84.89 516.50 84.92
  L 522.28 85.30
  L 520.98 85.93
  Q 517.34 86.36 514.02 85.26
  Q 513.95 84.39 513.93 85.00
  Q 514.33 84.03 514.26 83.28
  Q 514.20 82.78 513.70 82.75
  L 507.59 82.40
  A 0.64 0.63 5.8 0 1 506.99 81.68
  L 507.19 80.21
  Q 507.27 79.64 507.84 79.67
  L 513.85 80.04
  A 0.68 0.68 0.0 0 0 514.57 79.40
  L 515.51 60.68
  Q 515.54 60.09 514.94 60.08
  L 507.89 59.97
  A 0.64 0.64 0.0 0 0 507.24 60.60
  Q 507.10 71.51 505.92 82.23
  Q 505.75 83.79 506.48 84.26
  Q 505.90 84.69 505.99 84.98
  L 504.52 85.19
  L 506.18 57.46
  Z
  M 525.2991 61.1326
  A 0.30 0.30 0.0 0 0 525.0191 60.8139
  L 517.4948 60.3273
  A 0.30 0.30 0.0 0 0 517.1761 60.6073
  L 515.9409 79.7074
  A 0.30 0.30 0.0 0 0 516.2209 80.0261
  L 523.7452 80.5127
  A 0.30 0.30 0.0 0 0 524.0639 80.2327
  L 525.2991 61.1326
  Z
  M 526.25 80.80
  L 533.14 81.22
  A 0.66 0.66 0.0 0 0 533.84 80.60
  L 534.93 62.74
  A 1.54 1.21 -86.5 0 0 533.82 61.13
  L 528.03 60.77
  A 1.54 1.21 -86.5 0 0 526.73 62.23
  L 525.63 80.10
  A 0.66 0.66 0.0 0 0 526.25 80.80
  Z
  M 544.6341 62.3057
  A 0.41 0.41 0.0 0 0 544.2506 61.8708
  L 536.9052 61.4087
  A 0.41 0.41 0.0 0 0 536.4702 61.7921
  L 535.2659 80.9343
  A 0.41 0.41 0.0 0 0 535.6494 81.3692
  L 542.9948 81.8313
  A 0.41 0.41 0.0 0 0 543.4298 81.4479
  L 544.6341 62.3057
  Z"
/>
<path fill="#fefefe" d="
  M 180.32 58.34
  C 161.82 59.14 143.23 59.96 124.77 61.29
  Q 110.96 62.28 97.12 62.87
  C 92.15 63.08 84.27 64.23 77.69 63.83
  C 82.26 62.57 86.45 63.32 91.02 62.52
  C 95.93 61.66 100.74 62.22 105.62 61.51
  Q 111.76 60.63 117.99 61.07
  C 120.39 61.24 123.31 59.86 126.03 60.02
  Q 131.54 60.36 136.99 59.72
  C 143.32 58.98 148.89 59.27 154.92 58.74
  C 164.89 57.87 171.67 57.83 180.32 58.34
  Z"
/>
<ellipse fill="#a5ada4" fill-opacity="0.933" cx="0.00" cy="0.00" transform="translate(303.58,58.29) rotate(0.2)" rx="3.20" ry="0.25"/>
<path fill="#a9adae" fill-opacity="0.710" d="
  M 370.57 58.22
  L 370.07 58.56
  A 0.58 0.58 0.0 0 0 370.47 59.61
  Q 374.38 59.06 378.14 59.99
  Q 372.45 59.12 370.01 60.70
  L 364.87 61.04
  Q 364.61 61.06 364.56 61.32
  Q 364.53 61.49 364.77 61.63
  Q 358.21 62.24 351.99 61.13
  Q 351.50 61.05 351.25 60.77
  Q 350.97 60.46 350.78 60.06
  A 0.40 0.40 0.0 0 1 351.17 59.49
  Q 355.30 59.78 359.21 58.47
  L 370.57 58.22
  Z"
/>
<path fill="#a5ada4" fill-opacity="0.933" d="
  M 359.21 58.47
  Q 355.30 59.78 351.17 59.49
  A 0.40 0.40 0.0 0 0 350.78 60.06
  Q 350.97 60.46 351.25 60.77
  Q 351.50 61.05 351.99 61.13
  Q 358.21 62.24 364.77 61.63
  L 366.78 61.80
  C 355.87 62.36 348.75 60.87 339.90 61.71
  Q 339.29 61.77 339.24 61.16
  L 339.11 59.53
  Q 339.04 58.76 339.81 58.73
  C 341.76 58.66 343.16 59.57 344.95 59.46
  Q 352.08 59.01 359.21 58.47
  Z"
/>
<path fill="#fefefe" d="
  M 451.03 59.17
  C 464.34 59.31 478.53 60.23 492.24 59.99
  Q 493.03 59.97 493.73 60.08
  Q 498.03 60.72 494.99 61.04
  C 485.55 60.98 476.78 61.14 467.04 60.37
  Q 458.30 59.67 449.48 59.46
  Q 449.98 59.17 451.03 59.17
  Z"
/>
<path fill="#a5ada4" fill-opacity="0.933" d="
  M 378.14 59.99
  C 384.88 59.98 391.30 60.89 398.24 60.49
  Q 403.33 60.19 408.43 60.52
  C 413.74 60.87 418.79 59.89 423.96 60.54
  Q 432.34 61.59 440.23 61.78
  Q 442.17 61.83 440.23 61.95
  Q 433.59 62.36 426.27 62.02
  Q 418.28 60.92 410.25 61.88
  C 409.13 62.01 407.71 61.13 406.29 61.22
  Q 398.93 61.71 391.47 61.26
  L 370.01 60.70
  Q 372.45 59.12 378.14 59.99
  Z"
/>
<path fill="#000000" d="
  M 513.93 85.00
  L 506.48 84.26
  Q 505.75 83.79 505.92 82.23
  Q 507.10 71.51 507.24 60.60
  A 0.64 0.64 0.0 0 1 507.89 59.97
  L 514.94 60.08
  Q 515.54 60.09 515.51 60.68
  L 514.57 79.40
  A 0.68 0.68 0.0 0 1 513.85 80.04
  L 507.84 79.67
  Q 507.27 79.64 507.19 80.21
  L 506.99 81.68
  A 0.64 0.63 5.8 0 0 507.59 82.40
  L 513.70 82.75
  Q 514.20 82.78 514.26 83.28
  Q 514.33 84.03 513.93 85.00
  Z"
/>
<rect fill="#000000" x="-4.07" y="-9.87" transform="translate(520.62,70.42) rotate(3.7)" width="8.14" height="19.74" rx="0.30"/>
<path fill="#a9adae" fill-opacity="0.710" d="
  M 426.27 62.02
  Q 416.74 62.53 407.26 61.88
  Q 406.84 61.85 407.55 62.92
  C 403.11 61.19 398.23 61.92 391.69 62.33
  Q 392.18 62.04 392.76 61.95
  Q 393.80 61.79 392.77 61.56
  L 391.47 61.26
  Q 398.93 61.71 406.29 61.22
  C 407.71 61.13 409.13 62.01 410.25 61.88
  Q 418.28 60.92 426.27 62.02
  Z"
/>
<path fill="#000000" d="
  M 526.25 80.80
  A 0.66 0.66 0.0 0 1 525.63 80.10
  L 526.73 62.23
  A 1.54 1.21 -86.5 0 1 528.03 60.77
  L 533.82 61.13
  A 1.54 1.21 -86.5 0 1 534.93 62.74
  L 533.84 80.60
  A 0.66 0.66 0.0 0 1 533.14 81.22
  L 526.25 80.80
  Z"
/>
<rect fill="#000000" x="-4.09" y="-10.00" transform="translate(539.95,71.62) rotate(3.6)" width="8.18" height="20.00" rx="0.41"/>
<path fill="#000000" d="
  M 545.85 61.67
  L 554.25 62.06
  Q 554.23 62.22 553.81 62.31
  A 0.06 0.06 0.0 0 0 553.80 62.43
  Q 553.98 62.49 554.15 62.55
  Q 554.36 62.62 554.35 62.84
  L 553.02 82.01
  Q 552.98 82.49 552.50 82.45
  L 545.48 81.91
  Q 544.97 81.87 544.97 81.35
  C 545.07 74.79 546.44 68.17 545.85 61.67
  Z"
/>
<path fill="#000000" d="
  M 556.11 62.05
  Q 557.94 61.84 556.80 62.32
  Q 559.91 63.30 562.83 62.86
  L 564.14 63.05
  L 562.74 82.56
  Q 562.70 83.10 562.16 83.07
  L 555.30 82.78
  Q 554.63 82.75 554.67 82.08
  L 556.11 62.05
  Z"
/>
<path fill="#a5ada4" fill-opacity="0.933" d="
  M 556.80 62.32
  Q 560.28 61.40 562.83 62.86
  Q 559.91 63.30 556.80 62.32
  Z"
/>
<path fill="#000000" d="
  M 570.16 63.08
  Q 571.32 64.07 573.21 63.46
  Q 573.30 63.69 573.47 63.86
  A 0.83 0.82 25.6 0 1 573.70 64.50
  L 572.30 83.53
  A 0.53 0.52 -84.8 0 1 571.72 84.02
  L 564.72 83.24
  Q 564.06 83.17 564.11 82.51
  L 565.43 63.30
  L 570.16 63.08
  Z"
/>
<path fill="#a5ada4" fill-opacity="0.933" d="
  M 570.16 63.08
  L 573.48 63.07
  L 573.21 63.46
  Q 571.32 64.07 570.16 63.08
  Z"
/>
<path fill="#000000" d="
  M 577.09 63.64
  L 583.37 63.95
  L 581.84 84.20
  Q 581.80 84.71 581.30 84.65
  L 574.30 83.92
  Q 573.80 83.86 573.83 83.36
  L 575.18 64.44
  Q 575.23 63.77 575.89 63.82
  Q 576.68 63.88 577.09 63.64
  Z"
/>
<path fill="#fefefe" d="
  M 76.10 64.32
  L 46.40 66.70
  C 48.98 63.98 53.01 65.36 56.40 64.69
  C 62.76 63.45 69.62 63.89 76.10 64.32
  Z"
/>
<path fill="#000000" d="
  M 585.07 64.05
  Q 585.52 64.28 586.09 64.26
  L 591.61 64.92
  Q 593.14 65.10 593.02 66.65
  L 591.62 84.68
  A 0.59 0.59 0.0 0 1 591.00 85.23
  L 583.95 84.92
  A 0.46 0.46 0.0 0 1 583.51 84.43
  L 585.07 64.05
  Z"
/>
<path fill="#a5ada4" fill-opacity="0.933" d="
  M 596.85 66.17
  Q 595.65 66.06 594.93 65.38
  Q 595.55 64.77 596.20 65.03
  Q 597.04 65.38 596.85 66.17
  Z"
/>
<path fill="#000000" d="
  M 594.49 65.22
  Q 595.05 65.20 594.93 65.38
  Q 595.65 66.06 596.85 66.17
  L 602.33 70.24
  Q 602.63 70.46 602.62 70.83
  L 602.30 82.01
  Q 602.28 82.87 601.42 82.82
  Q 601.07 82.81 600.80 83.69
  Q 600.70 84.04 600.73 84.40
  L 600.85 85.95
  Q 600.88 86.40 600.49 86.61
  L 593.41 90.53
  Q 592.59 89.72 592.73 89.06
  Q 592.85 88.53 593.39 88.49
  Q 596.09 88.28 598.20 86.58
  Q 598.78 86.11 598.04 86.05
  L 593.75 85.69
  Q 592.88 85.62 592.95 84.76
  L 594.49 65.22
  Z"
/>
<path fill="#000000" d="
  M 523.70 85.30
  L 522.28 85.30
  L 516.50 84.92
  Q 515.98 84.89 515.81 84.40
  Q 515.59 83.80 515.96 83.36
  Q 516.21 83.06 516.78 83.03
  Q 520.12 82.85 523.45 83.34
  Q 523.92 83.41 524.00 83.89
  Q 524.13 84.64 523.70 85.30
  Z"
/>
<path fill="#000000" d="
  M 533.44 85.99
  L 525.43 85.99
  Q 525.14 84.70 525.34 84.05
  Q 525.54 83.39 526.76 83.49
  Q 530.12 83.76 533.28 84.08
  Q 533.86 84.14 533.73 84.70
  L 533.44 85.99
  Z"
/>
<path fill="#000000" d="
  M 542.97 86.97
  Q 542.17 87.10 541.52 86.89
  Q 541.51 86.48 541.25 86.46
  Q 538.11 86.20 535.05 85.86
  Q 534.88 85.09 535.03 84.50
  Q 535.16 83.98 535.69 84.03
  L 542.33 84.57
  Q 542.87 84.61 542.98 85.14
  Q 543.15 85.95 542.97 86.97
  Z"
/>
<path fill="#a5ada4" fill-opacity="0.933" d="
  M 506.48 84.26
  L 513.93 85.00
  Q 513.95 84.39 514.02 85.26
  L 505.99 84.98
  Q 505.90 84.69 506.48 84.26
  Z"
/>
<path fill="#000000" d="
  M 552.51 87.37
  Q 550.21 86.72 548.36 87.24
  L 544.31 87.01
  L 544.70 85.39
  Q 544.83 84.85 545.38 84.87
  L 552.20 85.12
  Q 552.64 85.14 552.86 85.52
  Q 553.41 86.46 552.51 87.37
  Z"
/>
<path fill="#a5ada4" fill-opacity="0.933" d="
  M 522.28 85.30
  L 523.70 85.30
  L 523.75 85.97
  L 520.98 85.93
  L 522.28 85.30
  Z"
/>
<path fill="#000000" d="
  M 562.21 87.97
  L 554.30 87.98
  Q 553.95 86.87 554.21 85.85
  A 0.55 0.54 9.2 0 1 554.79 85.44
  L 562.01 86.05
  Q 562.60 86.10 562.48 86.68
  L 562.21 87.97
  Z"
/>
<path fill="#a5ada4" fill-opacity="0.933" d="
  M 535.05 85.86
  Q 538.11 86.20 541.25 86.46
  Q 541.51 86.48 541.52 86.89
  Q 537.49 87.51 534.74 86.19
  Q 534.97 85.71 535.05 85.86
  Z"
/>
<path fill="#000000" d="
  M 571.98 88.95
  L 568.61 88.81
  L 564.00 87.98
  L 564.01 86.48
  Q 564.02 86.04 564.46 86.08
  L 571.36 86.61
  Q 571.92 86.65 571.94 87.22
  L 571.98 88.95
  Z"
/>
<path fill="#a5ada4" fill-opacity="0.933" d="
  M 552.51 87.37
  Q 552.44 87.57 552.77 87.96
  Q 550.45 88.06 548.36 87.24
  Q 550.21 86.72 552.51 87.37
  Z"
/>
<path fill="#000000" d="
  M 581.44 89.96
  Q 580.67 90.10 581.20 89.86
  Q 578.37 88.64 575.65 89.23
  L 573.28 88.97
  L 573.53 87.39
  Q 573.61 86.91 574.09 86.93
  L 580.98 87.28
  Q 581.60 87.32 581.71 87.92
  Q 581.89 88.90 581.44 89.96
  Z"
/>
<path fill="#000000" d="
  M 590.72 90.47
  Q 588.30 89.65 586.44 90.29
  L 582.61 89.95
  L 583.08 88.24
  Q 583.23 87.69 583.80 87.72
  L 590.71 88.10
  A 0.58 0.57 80.1 0 1 591.21 88.46
  Q 591.55 89.27 590.72 90.47
  Z"
/>
<path fill="#a5ada4" fill-opacity="0.933" d="
  M 564.00 87.98
  L 568.61 88.81
  Q 565.89 89.45 563.71 88.33
  Q 564.08 88.14 564.00 87.98
  Z"
/>
<path fill="#a5ada4" fill-opacity="0.933" d="
  M 581.20 89.86
  Q 578.14 90.32 575.65 89.23
  Q 578.37 88.64 581.20 89.86
  Z"
/>
<path fill="#a5ada4" fill-opacity="0.933" d="
  M 590.72 90.47
  Q 590.78 90.00 590.74 90.76
  Q 588.86 91.33 586.44 90.29
  Q 588.30 89.65 590.72 90.47
  Z"
/>
<path fill="#a5ada4" fill-opacity="0.933" d="
  M 503.94 99.64
  Q 504.05 102.96 504.00 106.00
  Q 503.98 107.26 502.29 107.26
  Q 502.27 106.90 502.01 106.55
  Q 502.60 106.54 502.99 105.98
  C 503.48 105.28 503.46 101.11 503.94 99.64
  Z"
/>
<path fill="#fefefe" d="
  M 502.01 106.55
  Q 502.27 106.90 502.29 107.26
  Q 501.73 107.54 502.60 108.98
  L 494.46 109.27
  Q 494.12 108.50 496.46 107.95
  Q 497.07 107.81 496.82 107.23
  Q 496.64 106.82 495.99 106.70
  Q 495.95 106.03 496.50 106.00
  Q 498.75 105.88 502.01 106.55
  Z"
/>
<path fill="#000000" d="
  M 502.60 108.98
  Q 502.80 108.33 503.68 109.22
  Q 503.25 109.22 503.23 109.50
  Q 502.78 114.46 503.08 119.54
  Q 502.20 120.87 502.55 123.35
  A 0.74 0.73 -3.6 0 1 501.80 124.19
  L 494.83 123.99
  Q 494.18 123.97 494.20 123.33
  L 494.46 109.27
  L 502.60 108.98
  Z"
/>
<path fill="#a5ada4" fill-opacity="0.933" d="
  M 503.68 109.22
  Q 504.11 114.58 503.08 119.54
  Q 502.78 114.46 503.23 109.50
  Q 503.25 109.22 503.68 109.22
  Z"
/>
</svg>
